<svg xmlns="http://www.w3.org/2000/svg" width="26.595" height="31.905" viewBox="0 0 26.595 31.905">
    <g style="opacity:.341">
        <path data-name="Path 1" d="m22.263 16.696-8.967 9.039-8.964-9.039a2.536 2.536 0 0 0-3.588 0 2.581 2.581 0 0 0 0 3.624l10.76 10.841a2.534 2.534 0 0 0 3.587 0L25.853 20.32a2.581 2.581 0 0 0 0-3.624 2.537 2.537 0 0 0-3.589 0z"/>
        <path data-name="Path 2" d="M11.504 15.211a2.534 2.534 0 0 0 3.587 0L25.852 4.369a2.583 2.583 0 0 0 0-3.626 2.536 2.536 0 0 0-3.588 0l-8.967 9.04L4.333.743a2.536 2.536 0 0 0-3.588 0 2.583 2.583 0 0 0 0 3.626z"/>
    </g>
</svg>
