<svg xmlns="http://www.w3.org/2000/svg" width="133.244" height="171.04" viewBox="0 0 133.244 171.04">
    <g data-name="Group 43">
        <g data-name="Group 41">
            <g data-name="Group 37">
                <path data-name="Path 28" d="M889.938 911.5c-2.83-2.264-7.358-2.83-11.207-1.924a26.477 26.477 0 0 0-12.565 7.357 59.428 59.428 0 0 0-8.716 12.567 91.712 91.712 0 0 0-6.792 19.244c-1.324 6.034-1.333 9.847-1 11.935a9.394 9.394 0 0 0 4.088 6.5 25.135 25.135 0 0 0 3.82 9.891 21.8 21.8 0 0 0 4.415 4.952 17.853 17.853 0 0 0 1.471-2.6c-1.429-3.071-2.745-11.306-2.264-16.3a48.655 48.655 0 0 0 5.759-12.239c1.231-4.627 3.3-11.192 5.957-14.532a107.789 107.789 0 0 0-3.849 13.81c3.735-.113 5.9-.868 7.415-2.094a30.958 30.958 0 0 0 7.584-9.707 31.248 31.248 0 0 1-6.792 11.688 28.936 28.936 0 0 0 8.49-.623 11.57 11.57 0 0 0 6.622-4.995 20.8 20.8 0 0 0 3.184-9.084 51.853 51.853 0 0 0 .382-8.957c1.1 5.349 2.031 12.742 3.947 17.659a19.784 19.784 0 0 0 9.933 10.357c0 1.528-.085 3.056-.085 3.056 1.231-2.335 2.957-3.509 3.863-2.6s.255 2.391-.113 4.188A33.609 33.609 0 0 1 912.35 963a26.294 26.294 0 0 1 3.919 3.622 11.189 11.189 0 0 1 2.25 4.627c1.359-3.849 2.219-10.556 2.165-17.786-.043-5.688-1.571-11.673-2.844-16.046-1.211-4.16-3.339-10.881-6.282-15.749s-6.288-8.48-10.485-10.273a13.814 13.814 0 0 0-11.135.105z" transform="translate(-789.715 -873.9)" style="fill:#7e6e60"/>
                <path data-name="Path 29" d="M987.812 1077.749c.651.566 1.245 1.076 1.811 1.556a12.312 12.312 0 0 0-.453 4.9 25.266 25.266 0 0 0-3.877 4.584 59.855 59.855 0 0 0-6.537 2.434c3.424-2.745 4.768-4.187 6.056-6.2a27.726 27.726 0 0 0 3-7.274z" transform="translate(-870.157 -978.799)" style="fill:#7e6e60"/>
            </g>
            <path data-name="Path 30" d="M706.383 1202.09c4.754-8.7 24.338-34.706 29.544-40.366-1.188 6.112.318 13.51 3.283 19.328a41.163 41.163 0 0 0 9.707 12.508c4.7 4.36 10.1 8.529 10.1 8.529z" transform="translate(-700.68 -1031.05)" style="fill:#2d2da8"/>
            <path data-name="Path 31" d="M887.965 1165.095c1.359 3.141 3.141 8.745 4.16 11.461a86.115 86.115 0 0 0 5.264 11.122c1.868 3.141 9.084 14.687 9.084 14.687s1.613.17 1.613 0-3.226-17.828-3.226-17.828c-2.462.085-3.99-1.019-5.433-2.887s-3.481-5.688-5.094-8.32a39.825 39.825 0 0 0-6.368-8.235z" transform="translate(-813.665 -1033.148)" style="fill:#2d2da8"/>
            <g data-name="Group 40">
                <g data-name="Group 39">
                    <g data-name="Group 38">
                        <path data-name="Path 32" d="M94.295 160.297c-.839-4.448-1.631-8.65-1.879-10.188a79.765 79.765 0 0 0-2.439-10.09c-.279-.877-.626-1.773-.994-2.72a31.378 31.378 0 0 1-1.694-5.277c-.535-2.741-.233-4.97.9-6.624a6.2 6.2 0 0 1 2.215-1.97 5.839 5.839 0 0 0-.512 2.3.921.921 0 0 0 1.842 0 5.486 5.486 0 0 1 3.14-4.459 17.793 17.793 0 0 0 7.631-2.954c1.262-.841 3-2.192 4.759-3.641a69.325 69.325 0 0 1 6.907-3.176c.549-.228 1.048-.436 1.471-.617a.925.925 0 0 0 .437-.39 23.993 23.993 0 0 1 3.74-4.276.922.922 0 0 0 .206-1.1c-.14-.281-.252-1.221.575-4.364a.921.921 0 0 0-.479-1.059 8.55 8.55 0 0 1-2.141-3.2c-.208-.737-.267-1.234.053-1.56a.892.892 0 0 1 .842.206c.678.735 2.3 2.562 2.928 3.342a3.913 3.913 0 0 1 .7 1.626c.066.238.138.5.227.791.185.609.465 1.345.736 2.057.3.8.617 1.62.781 2.22a2.55 2.55 0 0 1-.525 2.484l-.65.646c-1.95 1.935-4.071 4.052-4.563 4.678a13.394 13.394 0 0 1-1.64 1.683.922.922 0 0 0 1.2 1.4 15.377 15.377 0 0 0 1.89-1.944c.463-.589 3.23-3.335 4.412-4.508l.655-.651a4.331 4.331 0 0 0 1-4.271c-.187-.688-.517-1.554-.836-2.391-.26-.683-.529-1.389-.7-1.938-.083-.275-.15-.519-.212-.743a5.56 5.56 0 0 0-1.039-2.288c-.677-.846-2.344-2.716-3.012-3.44a2.456 2.456 0 0 0-.429-.364 1.192 1.192 0 0 1 .305-1.079.664.664 0 0 1 .512-.2.677.677 0 0 1 .457.173l.3.334c.756.841 2.349 2.613 2.863 3.174a37.762 37.762 0 0 1 3.023 6.03 1.275 1.275 0 0 0 .044.214c.889 2.846.984 5.181.667 5.593-1.039 1.039-5.377 5.146-6.8 6.373-.622.537-1.726 1.744-2.7 2.809-.4.442-.764.836-1.011 1.093a26.709 26.709 0 0 1-4.569 3.436c-1.154.728-3.309 2.257-5.209 3.606-.75.533-1.459 1.035-2.046 1.446a20 20 0 0 0-4.536 4.53c-1.336 1.83-2.105 3.563-1.511 6.072a112.257 112.257 0 0 0 4.363 12.716c1.539 3.711 5.528 12.5 9.493 21.191h2.7c-.6-1.317-1.2-2.638-1.8-3.95a1.219 1.219 0 0 0 .029-.416 71.018 71.018 0 0 0-4.692-19.442 43.975 43.975 0 0 0-7.745-12.472 6.042 6.042 0 0 1 1.147-2.25 17.529 17.529 0 0 1 3.961-3.967c.59-.413 1.3-.92 2.058-1.455 1.875-1.331 4-2.839 5.1-3.531a28.571 28.571 0 0 0 5.035-3.816c.255-.267.63-.676 1.048-1.134.835-.914 1.98-2.165 2.493-2.608 1.485-1.283 5.843-5.409 6.928-6.495 1.692-1.692.522-6.2-.059-8.063a1.226 1.226 0 0 0-.167-.329c-.029-.4-.054-.8-.077-1.185a1.216 1.216 0 0 0 .686-.62 16.919 16.919 0 0 0 .933-2.524c1.837-6.43 3.258-17.379 1.217-27.075-1.845-8.765-3.937-18.7-8.743-26.155-5.1-7.91-12.586-11.953-21.076-11.384a1.228 1.228 0 0 0 .164 2.451c7.556-.508 14.253 3.138 18.847 10.264 4.233 6.567 6.153 14.64 8.4 25.33 1.876 8.91.681 18.94-.98 25.173a7.692 7.692 0 0 0-1-1.819 14.18 14.18 0 0 0-.359-.493.908.908 0 0 0 .185-.3c1.421-4.1 1.862-14.044.1-22.958a.921.921 0 0 0-1.808.357c1.689 8.538 1.21 17.45.178 21.306a80.7 80.7 0 0 0-1.763-1.868l-.493-.512-.025-.024a27.273 27.273 0 0 0 1.56-6.715c.151-1.58-.256-2.59-1.211-3a2.683 2.683 0 0 0-2.518.458c-.136-5.106-1.179-13.971-5.064-20.632a1.228 1.228 0 1 0-2.122 1.238c3.169 5.432 4.309 12.649 4.633 17.555a16.948 16.948 0 0 1-5.5-7.165c-1.62-4.051-2.461-7.777-2.558-16.9a1.229 1.229 0 0 0-1.228-1.215h-.012a1.228 1.228 0 0 0-1.215 1.241c.1 9.513 1 13.454 2.733 17.788a19.029 19.029 0 0 0 7.894 9.265c0 .619-.012 1.142-.036 1.546a66.74 66.74 0 0 1-1.067 8.349 1.224 1.224 0 0 0 .146.941 3.111 3.111 0 0 0-.367 1.26 2 2 0 0 0-1.109.458 3.218 3.218 0 0 0-.617 3.455 7.008 7.008 0 0 0 .444 1.038 1.218 1.218 0 0 0-.558.708 26 26 0 0 1-.882 2.534l-.16.39c-1.065 2.592-1.552 3.775-3.2 5.571a88.232 88.232 0 0 1-10.711 9.035 15.316 15.316 0 0 1-9.69 2.7c-3.527-.147-6.866-1.858-9.924-5.085-2.98-3.145-6.663-8.288-7.4-10.932a52.867 52.867 0 0 1-1.325-11.886 1.229 1.229 0 0 0-2.451-.175 55.407 55.407 0 0 0 1.409 12.719 10.518 10.518 0 0 0 .549 1.458 1.23 1.23 0 0 0-.055.212c-.366 2.38-4.619 8.519-7.493 9.6a1.228 1.228 0 1 0 .862 2.3c3.049-1.143 6.668-5.793 8.265-9.207a51.1 51.1 0 0 0 5.853 7.605 17.687 17.687 0 0 0 9.621 5.624 8.607 8.607 0 0 0-3.205 2.813c-1.495 2.186-1.937 5.119-1.281 8.482a33.74 33.74 0 0 0 1.815 5.694c.353.912.687 1.772.943 2.577a76.826 76.826 0 0 1 2.355 9.736v.023a.377.377 0 0 1-.2.09c-.939.078-3.313-2.114-5.423-5.78l-.734-1.279c-3.392-5.914-8.5-14.819-13.7-20.728a22.1 22.1 0 0 0-2.847-3.378c-3.465-3.235-12.116-6.687-16.966-4.824a1.228 1.228 0 0 0 .88 2.294c3.758-1.444 11.522 1.631 14.408 4.327 4.525 4.226 9.63 16.009 11.358 21.378 2.467 7.667 8.628 17.544 11.589 22.29l1.067 1.717c1.064 1.716 1.931 3.108 2.816 4.409h4.044c-.489-2.811-1.243-6.818-1.985-10.754zm13.123-12.124a59.868 59.868 0 0 1 3.27 10.847c-1.97-4.365-3.6-8.044-4.462-10.112-1.176-2.838-2.383-6.259-3.225-8.882a47.7 47.7 0 0 1 4.417 8.148zm14.227-65.094a1.211 1.211 0 0 0 .348-.272 5.423 5.423 0 0 1 1.006-.907c0 .068-.008.143-.017.226a24.354 24.354 0 0 1-1.307 5.768 2.273 2.273 0 0 0-.538.031c.214-1.571.408-3.346.508-4.846zm-.629 6.9c.264-.239.625-.569 1.548.392l.5.516a33.763 33.763 0 0 1 3.278 3.729 4.663 4.663 0 0 1 1.042 2.754c.017.13.033.3.048.494a18.936 18.936 0 0 0-1.834-3.18c-.512-.558-2.1-2.323-2.85-3.16l-.3-.336a2.452 2.452 0 0 0-1.425-.737c-.078-.172-.115-.372-.005-.472zm-7.355 18.914a17.667 17.667 0 0 0 3.66-6.3l.16-.388c.237-.577.458-1.2.671-1.852a5.755 5.755 0 0 0 .508.534 11.7 11.7 0 0 0-.506 4.351 26.75 26.75 0 0 0-3.51 4.057c-.354.15-.753.316-1.183.494-.386.16-.791.329-1.207.5a25.51 25.51 0 0 0 1.409-1.393zm-22.143 56.44-1.073-1.72c-2.909-4.663-8.961-14.365-11.335-21.742-.516-1.6-1.408-3.988-2.548-6.642 2.124 3.4 4.021 6.7 5.476 9.242l.736 1.283c.654 1.136 4.013 6.7 6.983 6.7.059 0 .119 0 .177-.007a2.281 2.281 0 0 0 .38-.066c.372 2.063.954 5.148 1.561 8.368.462 2.451.953 5.055 1.38 7.361a278.288 278.288 0 0 1-1.735-2.774z"/>
                    </g>
                    <path data-name="Path 33" d="M96.822 74.19a12.368 12.368 0 0 1-5.963 1.2 1.228 1.228 0 0 0-.137 2.453c.161.009.392.018.681.018a14.8 14.8 0 0 0 6.536-1.485 15.6 15.6 0 0 0 7.9-11.327 42.645 42.645 0 0 0 .4-13.471 1.228 1.228 0 0 0-2.429.369 40.145 40.145 0 0 1-.386 12.657 13.4 13.4 0 0 1-6.602 9.586z"/>
                    <path data-name="Path 34" d="M98.421 43.93c-1.318 8.378-6.335 21.14-9.263 24.917-1.887 2.435-3.776 4.665-6.132 5.192a1.23 1.23 0 1 0 .536 2.4c3.414-.763 5.8-3.839 7.537-6.084 3.126-4.034 8.342-17.1 9.748-26.04a1.228 1.228 0 1 0-2.426-.382z"/>
                    <path data-name="Path 35" d="M71.559 88.761a1.227 1.227 0 0 0 .889-.38 19.369 19.369 0 0 0 4.136-7.286c.938-2.567 1.757-5.482 2.5-8.251 1.326-4.925 4.194-12.73 13.747-23.6a1.228 1.228 0 1 0-1.845-1.622c-9.892 11.257-12.885 19.422-14.275 24.584-.731 2.715-1.532 5.569-2.438 8.047a17 17 0 0 1-3.605 6.433 1.228 1.228 0 0 0 .889 2.076z"/>
                    <path data-name="Path 36" d="M60.13 93.231a1.228 1.228 0 0 0 .963-1.989c-2.161-2.738-2.172-8.271-1.461-12.535a108.73 108.73 0 0 1 5.569-20.938c3.129-7.9 9.877-16.83 15.363-20.32 5.239-3.334 13.379-5.491 17.394-3.162a1.228 1.228 0 0 0 1.233-2.125c-5.062-2.936-14.055-.535-19.946 3.214-5.863 3.731-13.035 13.169-16.328 21.489a111.25 111.25 0 0 0-5.708 21.438c-.387 2.321-1.389 10.224 1.956 14.462a1.225 1.225 0 0 0 .965.466z"/>
                    <path data-name="Path 37" d="M70.188 63.134a1.23 1.23 0 0 0-1.689.408A40.389 40.389 0 0 0 62.485 87.2c.141 3.021 1.185 9.312 2.338 11.811l.26.567c1.02 2.233 2.417 5.291 4.636 7.339a1.228 1.228 0 0 0 1.666-1.805c-1.856-1.713-3.134-4.512-4.067-6.555l-.264-.576c-.92-1.995-1.972-7.829-2.114-10.9a38 38 0 0 1 5.656-22.263 1.229 1.229 0 0 0-.408-1.684z"/>
                    <path data-name="Path 38" d="M107.968 89.375a2.05 2.05 0 1 0-1.987-2.112 2.051 2.051 0 0 0 1.987 2.112z"/>
                    <path data-name="Path 39" d="M84.395 83.183a2.051 2.051 0 1 0 1.987 2.112 2.051 2.051 0 0 0-1.987-2.112z"/>
                    <path data-name="Path 40" d="M86.383 107.305a39.034 39.034 0 0 1 5.618 1 17.336 17.336 0 0 0 4.252.477c.424 0 .818-.013 1.161-.034.878-.055 1.983-.068 3.052-.081a142.11 142.11 0 0 0 1.7-.027.921.921 0 0 0 .9-.944.905.905 0 0 0-.944-.9c-.532.013-1.1.02-1.679.027-1.092.013-2.221.026-3.146.085a16.8 16.8 0 0 1-4.817-.383 40.488 40.488 0 0 0-5.944-1.06.921.921 0 1 0-.153 1.836z"/>
                    <path data-name="Path 41" d="M97.513 90.047a.918.918 0 0 0-1.015.817 61.819 61.819 0 0 0-.216 7.058.921.921 0 0 0 .92.883h.039a.921.921 0 0 0 .882-.958 60.375 60.375 0 0 1 .207-6.785.921.921 0 0 0-.817-1.015z"/>
                </g>
                <path data-name="Path 42" d="M17.118 150.071c4.5-5.839 11.789-14.535 17.661-21.019a25.2 25.2 0 0 0-.85 8.539c.237 3.486 2.046 15.738 15.412 27.047a484.76 484.76 0 0 1 7.357 6.4h3.708c-3.656-3.24-7.163-6.315-9.479-8.274-6.58-5.567-13.858-15.148-14.548-25.338-.555-8.185 3-15.309 9.047-18.148a1.228 1.228 0 0 0-1.043-2.224 16.6 16.6 0 0 0-5.473 4.177 1.2 1.2 0 0 0-.3.213c-5.945 5.849-17.275 19.146-23.432 27.127A218.607 218.607 0 0 0 .006 171.038h2.832a222.394 222.394 0 0 1 14.28-20.967z"/>
            </g>
        </g>
        <g data-name="Group 42">
            <path data-name="Path 43" d="M851.055 898.606a4.037 4.037 0 0 0 2.554-3.129c.25-1.922-2.107-3.269-4.043-3.181a3.461 3.461 0 0 0-3.075 4.063c.444 1.887 2.865 3.179 4.564 2.247z" transform="translate(-787.812 -863.404)" style="stroke-width:1.5px;fill:none;stroke:#040000;stroke-miterlimit:10"/>
            <path data-name="Path 44" d="M823.4 873.666c.623-.958 1.684-1.654 2.347-3.114a4.037 4.037 0 0 0-1.07-4.433 3.6 3.6 0 0 0-3.74-.494 7.29 7.29 0 0 0-3.915 7.042c.266 1.509 1.157 3.25 2.689 3.25a5.113 5.113 0 0 0 3.689-2.251z" transform="translate(-769.48 -846.622)" style="stroke-width:1.8px;fill:none;stroke:#040000;stroke-miterlimit:10"/>
            <path data-name="Path 45" d="M787.808 832.872c2.842-2.471 4.231-7.026 2.042-10.091a7.911 7.911 0 0 0-2.532-2.182 12.553 12.553 0 0 0-12.643.221 10.514 10.514 0 0 0-4.687 6.146c-2.988 11.653 11.912 11.046 17.82 5.906z" transform="translate(-740.013 -817.8)" style="stroke-width:2px;fill:none;stroke:#040000;stroke-miterlimit:10"/>
        </g>
    </g>
</svg>
